<svg width="64" height="59" viewBox="0 0 64 59" fill="none" xmlns="http://www.w3.org/2000/svg">
  <path d="M6.01172 1.76917L15.8913 11.5329L22.3697 5.13043L38.5657 21.1365L46.6637 13.1335L63.5076 29.7798L58.9727 34.2614L46.6637 22.0968L38.5657 30.0999L22.3697 14.0938L15.8913 20.4962L1.47684 6.25086L6.01172 1.76917Z" fill="#1565C0" />
  <path d="M5.72205e-06 0H14.7692L5.72205e-06 14.7692V0Z" fill="#1565C0" />
  <path d="M6.40002 21.2615H2.24113e-05V58.0615H6.40002V21.2615Z" fill="#B3E5FC" />
  <path d="M15.9999 32.4616H9.59994V58.0616H15.9999V32.4616Z" fill="#B3E5FC" />
  <path d="M25.6 24.4614H19.2V58.0614H25.6V24.4614Z" fill="#B3E5FC" />
  <path d="M35.1999 34.0614H28.7999V58.0614H35.1999V34.0614Z" fill="#B3E5FC" />
  <path d="M44.8 38.8615H38.4V58.0614H44.8V38.8615Z" fill="#B3E5FC" />
  <path d="M54.3999 35.6615H47.9999V58.0615H54.3999V35.6615Z" fill="#B3E5FC" />
  <path d="M63.9999 42.0616H57.5999V58.0616H63.9999V42.0616Z" fill="#B3E5FC" />
</svg>